<svg width="685" height="683" viewBox="0 0 685 683" fill="none" xmlns="http://www.w3.org/2000/svg">
<g opacity="0.1">
<path fill-rule="evenodd" clip-rule="evenodd" d="M342.5 505.407C433.646 505.407 507.49 431.825 507.49 341.111C507.49 250.397 433.646 176.815 342.5 176.815C251.354 176.815 177.51 250.397 177.51 341.111C177.51 431.825 251.354 505.407 342.5 505.407ZM342.5 511.667C437.079 511.667 513.75 435.306 513.75 341.111C513.75 246.916 437.079 170.556 342.5 170.556C247.921 170.556 171.25 246.916 171.25 341.111C171.25 435.306 247.921 511.667 342.5 511.667Z" fill="url(#paint0_linear_3924_447)"/>
<path fill-rule="evenodd" clip-rule="evenodd" d="M342.5 594.097C482.827 594.097 596.541 480.808 596.541 341.112C596.541 201.416 482.827 88.1267 342.5 88.1267C202.173 88.1267 88.4589 201.416 88.4589 341.112C88.4589 480.808 202.173 594.097 342.5 594.097ZM342.5 600.357C486.26 600.357 602.8 484.289 602.8 341.112C602.8 197.935 486.26 81.8669 342.5 81.8669C198.74 81.8669 82.1992 197.935 82.1992 341.112C82.1992 484.289 198.74 600.357 342.5 600.357Z" fill="url(#paint1_linear_3924_447)"/>
<path fill-rule="evenodd" clip-rule="evenodd" d="M342.5 675.963C528.224 675.963 678.74 526.021 678.74 341.111C678.74 156.202 528.224 6.25974 342.5 6.25974C156.776 6.25974 6.25974 156.202 6.25974 341.111C6.25974 526.021 156.776 675.963 342.5 675.963ZM342.5 682.222C531.658 682.222 685 529.502 685 341.111C685 152.721 531.658 0 342.5 0C153.342 0 0 152.721 0 341.111C0 529.502 153.342 682.222 342.5 682.222Z" fill="url(#paint2_linear_3924_447)"/>
</g>
<defs>
<linearGradient id="paint0_linear_3924_447" x1="513.75" y1="170.556" x2="172.642" y2="513.053" gradientUnits="userSpaceOnUse">
<stop stop-color="#FC5027"/>
<stop offset="1" stop-color="#581363"/>
</linearGradient>
<linearGradient id="paint1_linear_3924_447" x1="82.1992" y1="81.8669" x2="600.685" y2="602.464" gradientUnits="userSpaceOnUse">
<stop stop-color="#FC5027"/>
<stop offset="1" stop-color="#CA0C62"/>
</linearGradient>
<linearGradient id="paint2_linear_3924_447" x1="685" y1="0" x2="2.78334" y2="684.994" gradientUnits="userSpaceOnUse">
<stop stop-color="#FDD236"/>
<stop offset="1" stop-color="#FC5027"/>
</linearGradient>
</defs>
</svg>
