<svg width="86" height="15" viewBox="0 0 86 15" fill="none" xmlns="http://www.w3.org/2000/svg">
<path d="M15.0386 4.49003C14.6529 3.95973 14.1268 3.57084 13.4955 3.28801C12.8642 3.00518 12.1627 2.86377 11.4262 2.86377C10.6546 2.86377 9.91809 3.00518 9.25171 3.28801C8.58534 3.57084 7.95404 3.95973 7.42795 4.45468C6.90187 4.94963 6.44593 5.58599 6.0952 6.29306C5.74448 7.00013 5.49898 7.77791 5.39376 8.66175C5.28854 9.51024 5.32361 10.3234 5.4639 11.0304C5.63926 11.7375 5.91984 12.3739 6.30564 12.8688C6.69143 13.3638 7.21752 13.788 7.81375 14.0708C8.40998 14.3537 9.11143 14.4951 9.91809 14.4951C10.6897 14.4951 11.4262 14.3537 12.1276 14.0708C12.794 13.788 13.4253 13.3991 13.9514 12.8688C14.4775 12.3739 14.8984 11.7375 15.2491 11.0304C15.5998 10.3234 15.8102 9.51024 15.9155 8.66175C16.0207 7.81327 15.9856 7.00013 15.8453 6.29306C15.7401 5.62135 15.4244 5.02034 15.0386 4.49003ZM8.26969 8.6971C8.40998 7.67185 8.72563 6.85872 9.25171 6.25771C9.74273 5.6567 10.374 5.37387 11.1456 5.37387C11.9172 5.37387 12.4433 5.6567 12.794 6.22236C13.1447 6.82337 13.25 7.6365 13.1097 8.6264C12.9694 9.65165 12.6537 10.5001 12.1276 11.1011C11.6366 11.7022 11.0053 11.985 10.2337 11.985C9.46215 11.985 8.93606 11.7022 8.62041 11.1365C8.26969 10.5708 8.16447 9.75771 8.26969 8.6971Z" fill="#EF3F3E"/>
<path d="M27.2782 14.2475H30.084L31.522 3.14648H28.7162L27.2782 14.2475Z" fill="#EF3F3E"/>
<path d="M38.4672 2.89893C37.6254 2.89893 36.8539 3.04034 36.1524 3.35852C35.451 3.64135 34.8197 4.06559 34.2936 4.5959C33.7675 5.1262 33.3115 5.72721 32.9608 6.43428C32.6101 7.14135 32.3997 7.91913 32.2945 8.69691C32.1892 9.51004 32.1892 10.2878 32.3295 10.9949C32.4698 11.702 32.7153 12.3383 33.1011 12.8686C33.4869 13.3989 34.013 13.7878 34.6794 14.106C35.3457 14.3888 36.1524 14.5302 37.0643 14.5302C37.6605 14.5302 38.2567 14.4595 38.8179 14.3535C39.4141 14.2474 39.835 14.106 40.1506 13.9646L40.2559 13.9292L40.1857 11.4898L39.9402 11.5959C39.6246 11.702 39.2738 11.808 38.888 11.8787C38.4672 11.9494 38.0814 11.9848 37.6605 11.9848C36.6083 11.9848 35.8718 11.702 35.5211 11.1363C35.1353 10.5706 35.0301 9.75751 35.1704 8.73226C35.3107 7.67165 35.6614 6.82317 36.2225 6.25751C36.7837 5.69186 37.5202 5.40903 38.397 5.40903C38.7828 5.40903 39.1686 5.44438 39.4843 5.51509C39.835 5.58579 40.1156 5.69186 40.3611 5.79792L40.5364 5.86862L41.4483 3.49994L41.308 3.42923C40.4663 3.07569 39.5193 2.89893 38.4672 2.89893Z" fill="#EF3F3E"/>
<path d="M58.2131 14.2475H61.0189L62.4569 3.14648H59.6511L58.2131 14.2475Z" fill="#EF3F3E"/>
<path d="M72.627 4.38407C72.3114 3.92447 71.8554 3.57093 71.2943 3.32346C70.7331 3.07598 69.9966 2.93457 69.0847 2.93457C68.1728 2.93457 67.296 3.00528 66.5245 3.11134C65.7529 3.2174 65.1216 3.35881 64.5955 3.50023L64.4903 3.53558L63.1224 14.2123H65.9282L67.0505 5.55073C67.2259 5.51538 67.4013 5.51538 67.6818 5.48003C68.0326 5.44467 68.3482 5.40932 68.6288 5.40932C69.0146 5.40932 69.3653 5.48003 69.6108 5.58609C69.8563 5.69215 70.0317 5.83356 70.1369 6.04568C70.2772 6.2578 70.3473 6.57598 70.3473 6.96487C70.3824 7.35376 70.3473 7.84871 70.2772 8.41437L69.5056 14.2477H72.3114L73.118 8.06083C73.2233 7.31841 73.2233 6.64669 73.1531 6.01033C73.118 5.37396 72.9427 4.80831 72.627 4.38407Z" fill="#EF3F3E"/>
<path d="M82.5878 0.530273L82.202 3.42926C81.9916 3.3232 81.711 3.21714 81.4304 3.11108C81.0446 2.96967 80.5536 2.93431 80.0275 2.93431C79.2559 2.93431 78.5194 3.07573 77.8881 3.35856C77.2568 3.64138 76.6957 4.03027 76.2046 4.52522C75.7136 5.02017 75.3278 5.65654 75.0122 6.36361C74.6965 7.07068 74.4861 7.84846 74.3809 8.73229C74.2757 9.61613 74.3107 10.4293 74.451 11.1363C74.6264 11.8434 74.907 12.4798 75.3278 12.9747C75.7487 13.4697 76.3099 13.8586 76.9412 14.1414C77.6075 14.4242 78.3441 14.5303 79.2209 14.5303C80.0275 14.5303 80.8342 14.4596 81.6058 14.3535C82.3774 14.2121 83.0087 14.106 83.5348 13.9293L83.64 13.8939L85.4287 0.530273H82.5878ZM80.5887 11.9495C80.3081 11.9848 79.9924 11.9848 79.6067 11.9848C78.7649 11.9848 78.1336 11.702 77.7478 11.1363C77.327 10.5707 77.1867 9.72219 77.327 8.69694C77.4672 7.67169 77.7478 6.85856 78.2388 6.2929C78.6948 5.72724 79.3261 5.44441 80.2029 5.44441C80.5887 5.44441 80.9394 5.51512 81.2551 5.62118C81.5356 5.72724 81.7811 5.8333 81.9565 5.97472L81.1498 11.8434C80.9745 11.8788 80.7991 11.9141 80.5887 11.9495Z" fill="#EF3F3E"/>
<path d="M21.2815 6.25771C21.8076 5.69205 22.5441 5.40922 23.456 5.40922C23.8418 5.40922 24.2276 5.44458 24.5432 5.51529C24.8939 5.58599 25.1745 5.69205 25.42 5.79811L25.5954 5.86882L26.5073 3.50013L26.367 3.42943C25.4902 3.04054 24.5432 2.86377 23.5261 2.86377C22.6844 2.86377 21.9128 3.00518 21.2113 3.32337C20.5099 3.60619 19.8786 4.03044 19.3525 4.56074C18.8264 5.09104 18.3705 5.69205 18.0198 6.39912C17.669 7.10619 17.4586 7.88397 17.3534 8.66175C17.2482 9.47488 17.2482 10.2527 17.3885 10.9597C17.5287 11.6668 17.7742 12.3032 18.16 12.8335C18.5458 13.3638 19.0719 13.7527 19.7383 14.0708C20.4047 14.3537 21.2113 14.4951 22.1232 14.4951C22.7194 14.4951 23.3157 14.4244 23.8768 14.3183C24.4731 14.2123 24.8939 14.0708 25.2096 13.9294L25.2797 13.8941L25.9812 8.48498H23.1754L22.7194 11.985H22.6844C21.6322 11.985 20.8957 11.7022 20.545 11.1365C20.1592 10.5708 20.0539 9.75771 20.1942 8.73246C20.3696 7.67185 20.7203 6.82337 21.2815 6.25771Z" fill="#EF3F3E"/>
<path d="M52.4958 9.89901L51.4436 3.14648H49.2691L46.3582 9.89901L45.4112 3.14648H42.4301L44.6396 14.2475H46.9193L49.7952 7.3182L50.8474 14.2475H53.092L58.2126 3.14648H55.2665L52.4958 9.89901Z" fill="#EF3F3E"/>
<path d="M2.02738 0.530273H4.83317L3.04448 14.5303C1.53637 14.5303 0.414053 13.2222 0.589415 11.702L2.02738 0.530273Z" fill="#EF3F3E"/>
</svg>
