<svg width="18" height="19" viewBox="0 0 18 19" fill="none" xmlns="http://www.w3.org/2000/svg">
<mask id="path-1-outside-1_4422_435" maskUnits="userSpaceOnUse" x="-0.0991821" y="0.430176" width="18" height="18" fill="black">
<rect fill="white" x="-0.0991821" y="0.430176" width="18" height="18"/>
<path fill-rule="evenodd" clip-rule="evenodd" d="M8.52335 1.46266C8.0712 1.55857 7.70074 1.73786 7.35929 2.02608C6.39156 2.8429 6.18373 4.28568 6.88313 5.33138C6.97053 5.46207 7.0369 5.57223 7.03063 5.57619C7.02436 5.58015 6.91236 5.60972 6.78174 5.6419C6.46046 5.721 6.04915 5.90162 5.76543 6.08819C5.34304 6.36593 5.05545 6.69548 4.18436 7.90004L3.37768 9.01553L2.7855 9.01626C2.14648 9.01702 1.95358 9.04396 1.68356 9.17021C1.45316 9.27794 1.15091 9.58253 1.04053 9.81819C0.641224 10.6708 1.1348 11.6556 2.05136 11.8352C2.17749 11.8599 2.59592 11.8682 3.34601 11.8609L4.45431 11.8502L4.70764 11.7612C5.16575 11.6003 5.4641 11.3753 5.77369 10.9573L5.97427 10.6864L5.98256 11.9149C5.98712 12.5905 5.98712 13.147 5.98256 13.1514C5.978 13.1559 5.84602 13.1252 5.68927 13.0832C4.98424 12.8941 4.26023 12.8336 3.80526 12.9257C2.49959 13.1903 1.65896 14.4404 1.92397 15.7234C2.11596 16.653 2.85054 17.3876 3.78015 17.5796C3.99725 17.6245 4.57284 17.63 8.99834 17.63C13.4225 17.63 13.9995 17.6245 14.2164 17.5796C15.1502 17.3868 15.8798 16.6572 16.0727 15.7234C16.3351 14.4534 15.499 13.1955 14.2164 12.9305C13.7578 12.8358 13.0477 12.8883 12.3707 13.067C12.1792 13.1176 12.0187 13.1554 12.0141 13.1511C12.0096 13.1468 12.0096 12.5905 12.0141 11.9149L12.0224 10.6864L12.2253 10.9605C12.537 11.3813 12.8791 11.6297 13.3682 11.7903C13.5193 11.8398 13.6893 11.849 14.6507 11.8596C15.8926 11.8731 16.02 11.8602 16.3514 11.6866C16.7338 11.4864 17.0035 11.1079 17.0795 10.6646C17.2049 9.93301 16.7057 9.20676 15.9712 9.05226C15.8789 9.03285 15.5369 9.01664 15.2112 9.01626L14.619 9.01553L13.8123 7.90004C12.9412 6.69548 12.6536 6.36593 12.2312 6.08819C11.9443 5.89953 11.5065 5.70735 11.2037 5.63718C11.0793 5.60833 10.9723 5.58116 10.966 5.57676C10.9597 5.57239 11.0227 5.46615 11.1062 5.34066C11.4011 4.89702 11.5144 4.51118 11.5144 3.95044C11.5144 3.39987 11.4023 3.00788 11.1234 2.58226C10.7617 2.03052 10.2608 1.67168 9.60046 1.4915C9.3541 1.42428 8.77715 1.40882 8.52335 1.46266ZM9.32136 2.40215C9.91478 2.52589 10.4229 3.034 10.5466 3.62742C10.6557 4.1506 10.4962 4.6734 10.109 5.06156C9.48051 5.69148 8.52804 5.69167 7.88998 5.06206C7.25555 4.43607 7.25546 3.46494 7.88972 2.83907C8.28602 2.44803 8.79558 2.29252 9.32136 2.40215ZM10.86 6.53373C11.3267 6.62942 11.7411 6.85127 12.0697 7.18139C12.1656 7.27775 12.6526 7.91936 13.152 8.6072C13.8856 9.61784 14.0818 9.86829 14.1743 9.91236C14.2725 9.9592 14.3939 9.96692 15.033 9.96692C15.7165 9.96692 15.7875 9.97215 15.9023 10.0307C16.0428 10.1024 16.1548 10.2848 16.1548 10.4419C16.1548 10.6006 16.0428 10.7814 15.8992 10.8547C15.7762 10.9175 15.7294 10.9197 14.7201 10.9106L13.669 10.9011L13.4753 10.8115C13.3688 10.7623 13.2248 10.6626 13.1553 10.5899C13.0858 10.5172 12.7652 10.0872 12.4427 9.63434C11.8259 8.76803 11.7597 8.7003 11.5293 8.7003C11.389 8.7003 11.1926 8.81299 11.1285 8.93019C11.0768 9.02474 11.0712 9.20536 11.0566 11.2311L11.0408 13.4294L10.0206 13.7069L9.00043 13.9844L7.97817 13.706L6.9559 13.4276L6.94007 11.2302C6.92547 9.20533 6.91984 9.02474 6.86816 8.93019C6.80413 8.81299 6.60767 8.7003 6.46743 8.7003C6.23706 8.7003 6.17081 8.76803 5.55394 9.63434C5.23142 10.0872 4.91622 10.512 4.85343 10.5783C4.79066 10.6445 4.64703 10.7443 4.53424 10.7999L4.3292 10.9011L3.27736 10.9106C2.26729 10.9197 2.22046 10.9175 2.09747 10.8547C1.95383 10.7814 1.84189 10.6006 1.84189 10.4419C1.84189 10.29 1.94734 10.1172 2.08835 10.0379C2.20928 9.96993 2.24645 9.96692 2.96134 9.96692C3.60263 9.96692 3.72416 9.95923 3.82242 9.91236C3.91489 9.86829 4.11106 9.61784 4.84472 8.6072C5.34405 7.91936 5.83107 7.27775 5.92702 7.18139C6.24811 6.85881 6.66584 6.63177 7.11423 6.53614C7.45169 6.46416 10.5111 6.4622 10.86 6.53373ZM5.0534 13.9088C5.37189 13.977 10.8621 15.4747 10.9928 15.5289C11.483 15.7325 11.4929 16.3969 11.0091 16.6202C10.8885 16.6759 10.7209 16.6787 7.50369 16.6794C5.10216 16.6799 4.07641 16.6697 3.95713 16.6441C3.68363 16.5856 3.45539 16.4597 3.24962 16.254C2.46469 15.469 2.83103 14.16 3.916 13.8729C4.11159 13.8211 4.73626 13.8408 5.0534 13.9088ZM14.0396 13.866C14.313 13.9246 14.5413 14.0505 14.7471 14.2562C14.9707 14.4799 15.0942 14.7197 15.1483 15.0351C15.2478 15.6151 14.9435 16.2265 14.4198 16.4992C14.1072 16.6619 13.9683 16.6801 13.0356 16.6801H12.1994L12.2477 16.5455C12.3166 16.354 12.3377 15.9995 12.2932 15.7851C12.211 15.3896 11.9269 14.9746 11.5933 14.7628C11.5159 14.7135 11.3099 14.627 11.1358 14.5704C10.9616 14.5138 10.8285 14.4667 10.8399 14.4655C10.8513 14.4644 11.3055 14.3424 11.8493 14.1945C12.986 13.8853 13.1906 13.8443 13.6437 13.8349C13.7691 13.8323 13.9472 13.8463 14.0396 13.866Z"/>
</mask>
<path fill-rule="evenodd" clip-rule="evenodd" d="M8.52335 1.46266C8.0712 1.55857 7.70074 1.73786 7.35929 2.02608C6.39156 2.8429 6.18373 4.28568 6.88313 5.33138C6.97053 5.46207 7.0369 5.57223 7.03063 5.57619C7.02436 5.58015 6.91236 5.60972 6.78174 5.6419C6.46046 5.721 6.04915 5.90162 5.76543 6.08819C5.34304 6.36593 5.05545 6.69548 4.18436 7.90004L3.37768 9.01553L2.7855 9.01626C2.14648 9.01702 1.95358 9.04396 1.68356 9.17021C1.45316 9.27794 1.15091 9.58253 1.04053 9.81819C0.641224 10.6708 1.1348 11.6556 2.05136 11.8352C2.17749 11.8599 2.59592 11.8682 3.34601 11.8609L4.45431 11.8502L4.70764 11.7612C5.16575 11.6003 5.4641 11.3753 5.77369 10.9573L5.97427 10.6864L5.98256 11.9149C5.98712 12.5905 5.98712 13.147 5.98256 13.1514C5.978 13.1559 5.84602 13.1252 5.68927 13.0832C4.98424 12.8941 4.26023 12.8336 3.80526 12.9257C2.49959 13.1903 1.65896 14.4404 1.92397 15.7234C2.11596 16.653 2.85054 17.3876 3.78015 17.5796C3.99725 17.6245 4.57284 17.63 8.99834 17.63C13.4225 17.63 13.9995 17.6245 14.2164 17.5796C15.1502 17.3868 15.8798 16.6572 16.0727 15.7234C16.3351 14.4534 15.499 13.1955 14.2164 12.9305C13.7578 12.8358 13.0477 12.8883 12.3707 13.067C12.1792 13.1176 12.0187 13.1554 12.0141 13.1511C12.0096 13.1468 12.0096 12.5905 12.0141 11.9149L12.0224 10.6864L12.2253 10.9605C12.537 11.3813 12.8791 11.6297 13.3682 11.7903C13.5193 11.8398 13.6893 11.849 14.6507 11.8596C15.8926 11.8731 16.02 11.8602 16.3514 11.6866C16.7338 11.4864 17.0035 11.1079 17.0795 10.6646C17.2049 9.93301 16.7057 9.20676 15.9712 9.05226C15.8789 9.03285 15.5369 9.01664 15.2112 9.01626L14.619 9.01553L13.8123 7.90004C12.9412 6.69548 12.6536 6.36593 12.2312 6.08819C11.9443 5.89953 11.5065 5.70735 11.2037 5.63718C11.0793 5.60833 10.9723 5.58116 10.966 5.57676C10.9597 5.57239 11.0227 5.46615 11.1062 5.34066C11.4011 4.89702 11.5144 4.51118 11.5144 3.95044C11.5144 3.39987 11.4023 3.00788 11.1234 2.58226C10.7617 2.03052 10.2608 1.67168 9.60046 1.4915C9.3541 1.42428 8.77715 1.40882 8.52335 1.46266ZM9.32136 2.40215C9.91478 2.52589 10.4229 3.034 10.5466 3.62742C10.6557 4.1506 10.4962 4.6734 10.109 5.06156C9.48051 5.69148 8.52804 5.69167 7.88998 5.06206C7.25555 4.43607 7.25546 3.46494 7.88972 2.83907C8.28602 2.44803 8.79558 2.29252 9.32136 2.40215ZM10.86 6.53373C11.3267 6.62942 11.7411 6.85127 12.0697 7.18139C12.1656 7.27775 12.6526 7.91936 13.152 8.6072C13.8856 9.61784 14.0818 9.86829 14.1743 9.91236C14.2725 9.9592 14.3939 9.96692 15.033 9.96692C15.7165 9.96692 15.7875 9.97215 15.9023 10.0307C16.0428 10.1024 16.1548 10.2848 16.1548 10.4419C16.1548 10.6006 16.0428 10.7814 15.8992 10.8547C15.7762 10.9175 15.7294 10.9197 14.7201 10.9106L13.669 10.9011L13.4753 10.8115C13.3688 10.7623 13.2248 10.6626 13.1553 10.5899C13.0858 10.5172 12.7652 10.0872 12.4427 9.63434C11.8259 8.76803 11.7597 8.7003 11.5293 8.7003C11.389 8.7003 11.1926 8.81299 11.1285 8.93019C11.0768 9.02474 11.0712 9.20536 11.0566 11.2311L11.0408 13.4294L10.0206 13.7069L9.00043 13.9844L7.97817 13.706L6.9559 13.4276L6.94007 11.2302C6.92547 9.20533 6.91984 9.02474 6.86816 8.93019C6.80413 8.81299 6.60767 8.7003 6.46743 8.7003C6.23706 8.7003 6.17081 8.76803 5.55394 9.63434C5.23142 10.0872 4.91622 10.512 4.85343 10.5783C4.79066 10.6445 4.64703 10.7443 4.53424 10.7999L4.3292 10.9011L3.27736 10.9106C2.26729 10.9197 2.22046 10.9175 2.09747 10.8547C1.95383 10.7814 1.84189 10.6006 1.84189 10.4419C1.84189 10.29 1.94734 10.1172 2.08835 10.0379C2.20928 9.96993 2.24645 9.96692 2.96134 9.96692C3.60263 9.96692 3.72416 9.95923 3.82242 9.91236C3.91489 9.86829 4.11106 9.61784 4.84472 8.6072C5.34405 7.91936 5.83107 7.27775 5.92702 7.18139C6.24811 6.85881 6.66584 6.63177 7.11423 6.53614C7.45169 6.46416 10.5111 6.4622 10.86 6.53373ZM5.0534 13.9088C5.37189 13.977 10.8621 15.4747 10.9928 15.5289C11.483 15.7325 11.4929 16.3969 11.0091 16.6202C10.8885 16.6759 10.7209 16.6787 7.50369 16.6794C5.10216 16.6799 4.07641 16.6697 3.95713 16.6441C3.68363 16.5856 3.45539 16.4597 3.24962 16.254C2.46469 15.469 2.83103 14.16 3.916 13.8729C4.11159 13.8211 4.73626 13.8408 5.0534 13.9088ZM14.0396 13.866C14.313 13.9246 14.5413 14.0505 14.7471 14.2562C14.9707 14.4799 15.0942 14.7197 15.1483 15.0351C15.2478 15.6151 14.9435 16.2265 14.4198 16.4992C14.1072 16.6619 13.9683 16.6801 13.0356 16.6801H12.1994L12.2477 16.5455C12.3166 16.354 12.3377 15.9995 12.2932 15.7851C12.211 15.3896 11.9269 14.9746 11.5933 14.7628C11.5159 14.7135 11.3099 14.627 11.1358 14.5704C10.9616 14.5138 10.8285 14.4667 10.8399 14.4655C10.8513 14.4644 11.3055 14.3424 11.8493 14.1945C12.986 13.8853 13.1906 13.8443 13.6437 13.8349C13.7691 13.8323 13.9472 13.8463 14.0396 13.866Z" fill="white"/>
<path fill-rule="evenodd" clip-rule="evenodd" d="M8.52335 1.46266C8.0712 1.55857 7.70074 1.73786 7.35929 2.02608C6.39156 2.8429 6.18373 4.28568 6.88313 5.33138C6.97053 5.46207 7.0369 5.57223 7.03063 5.57619C7.02436 5.58015 6.91236 5.60972 6.78174 5.6419C6.46046 5.721 6.04915 5.90162 5.76543 6.08819C5.34304 6.36593 5.05545 6.69548 4.18436 7.90004L3.37768 9.01553L2.7855 9.01626C2.14648 9.01702 1.95358 9.04396 1.68356 9.17021C1.45316 9.27794 1.15091 9.58253 1.04053 9.81819C0.641224 10.6708 1.1348 11.6556 2.05136 11.8352C2.17749 11.8599 2.59592 11.8682 3.34601 11.8609L4.45431 11.8502L4.70764 11.7612C5.16575 11.6003 5.4641 11.3753 5.77369 10.9573L5.97427 10.6864L5.98256 11.9149C5.98712 12.5905 5.98712 13.147 5.98256 13.1514C5.978 13.1559 5.84602 13.1252 5.68927 13.0832C4.98424 12.8941 4.26023 12.8336 3.80526 12.9257C2.49959 13.1903 1.65896 14.4404 1.92397 15.7234C2.11596 16.653 2.85054 17.3876 3.78015 17.5796C3.99725 17.6245 4.57284 17.63 8.99834 17.63C13.4225 17.63 13.9995 17.6245 14.2164 17.5796C15.1502 17.3868 15.8798 16.6572 16.0727 15.7234C16.3351 14.4534 15.499 13.1955 14.2164 12.9305C13.7578 12.8358 13.0477 12.8883 12.3707 13.067C12.1792 13.1176 12.0187 13.1554 12.0141 13.1511C12.0096 13.1468 12.0096 12.5905 12.0141 11.9149L12.0224 10.6864L12.2253 10.9605C12.537 11.3813 12.8791 11.6297 13.3682 11.7903C13.5193 11.8398 13.6893 11.849 14.6507 11.8596C15.8926 11.8731 16.02 11.8602 16.3514 11.6866C16.7338 11.4864 17.0035 11.1079 17.0795 10.6646C17.2049 9.93301 16.7057 9.20676 15.9712 9.05226C15.8789 9.03285 15.5369 9.01664 15.2112 9.01626L14.619 9.01553L13.8123 7.90004C12.9412 6.69548 12.6536 6.36593 12.2312 6.08819C11.9443 5.89953 11.5065 5.70735 11.2037 5.63718C11.0793 5.60833 10.9723 5.58116 10.966 5.57676C10.9597 5.57239 11.0227 5.46615 11.1062 5.34066C11.4011 4.89702 11.5144 4.51118 11.5144 3.95044C11.5144 3.39987 11.4023 3.00788 11.1234 2.58226C10.7617 2.03052 10.2608 1.67168 9.60046 1.4915C9.3541 1.42428 8.77715 1.40882 8.52335 1.46266ZM9.32136 2.40215C9.91478 2.52589 10.4229 3.034 10.5466 3.62742C10.6557 4.1506 10.4962 4.6734 10.109 5.06156C9.48051 5.69148 8.52804 5.69167 7.88998 5.06206C7.25555 4.43607 7.25546 3.46494 7.88972 2.83907C8.28602 2.44803 8.79558 2.29252 9.32136 2.40215ZM10.86 6.53373C11.3267 6.62942 11.7411 6.85127 12.0697 7.18139C12.1656 7.27775 12.6526 7.91936 13.152 8.6072C13.8856 9.61784 14.0818 9.86829 14.1743 9.91236C14.2725 9.9592 14.3939 9.96692 15.033 9.96692C15.7165 9.96692 15.7875 9.97215 15.9023 10.0307C16.0428 10.1024 16.1548 10.2848 16.1548 10.4419C16.1548 10.6006 16.0428 10.7814 15.8992 10.8547C15.7762 10.9175 15.7294 10.9197 14.7201 10.9106L13.669 10.9011L13.4753 10.8115C13.3688 10.7623 13.2248 10.6626 13.1553 10.5899C13.0858 10.5172 12.7652 10.0872 12.4427 9.63434C11.8259 8.76803 11.7597 8.7003 11.5293 8.7003C11.389 8.7003 11.1926 8.81299 11.1285 8.93019C11.0768 9.02474 11.0712 9.20536 11.0566 11.2311L11.0408 13.4294L10.0206 13.7069L9.00043 13.9844L7.97817 13.706L6.9559 13.4276L6.94007 11.2302C6.92547 9.20533 6.91984 9.02474 6.86816 8.93019C6.80413 8.81299 6.60767 8.7003 6.46743 8.7003C6.23706 8.7003 6.17081 8.76803 5.55394 9.63434C5.23142 10.0872 4.91622 10.512 4.85343 10.5783C4.79066 10.6445 4.64703 10.7443 4.53424 10.7999L4.3292 10.9011L3.27736 10.9106C2.26729 10.9197 2.22046 10.9175 2.09747 10.8547C1.95383 10.7814 1.84189 10.6006 1.84189 10.4419C1.84189 10.29 1.94734 10.1172 2.08835 10.0379C2.20928 9.96993 2.24645 9.96692 2.96134 9.96692C3.60263 9.96692 3.72416 9.95923 3.82242 9.91236C3.91489 9.86829 4.11106 9.61784 4.84472 8.6072C5.34405 7.91936 5.83107 7.27775 5.92702 7.18139C6.24811 6.85881 6.66584 6.63177 7.11423 6.53614C7.45169 6.46416 10.5111 6.4622 10.86 6.53373ZM5.0534 13.9088C5.37189 13.977 10.8621 15.4747 10.9928 15.5289C11.483 15.7325 11.4929 16.3969 11.0091 16.6202C10.8885 16.6759 10.7209 16.6787 7.50369 16.6794C5.10216 16.6799 4.07641 16.6697 3.95713 16.6441C3.68363 16.5856 3.45539 16.4597 3.24962 16.254C2.46469 15.469 2.83103 14.16 3.916 13.8729C4.11159 13.8211 4.73626 13.8408 5.0534 13.9088ZM14.0396 13.866C14.313 13.9246 14.5413 14.0505 14.7471 14.2562C14.9707 14.4799 15.0942 14.7197 15.1483 15.0351C15.2478 15.6151 14.9435 16.2265 14.4198 16.4992C14.1072 16.6619 13.9683 16.6801 13.0356 16.6801H12.1994L12.2477 16.5455C12.3166 16.354 12.3377 15.9995 12.2932 15.7851C12.211 15.3896 11.9269 14.9746 11.5933 14.7628C11.5159 14.7135 11.3099 14.627 11.1358 14.5704C10.9616 14.5138 10.8285 14.4667 10.8399 14.4655C10.8513 14.4644 11.3055 14.3424 11.8493 14.1945C12.986 13.8853 13.1906 13.8443 13.6437 13.8349C13.7691 13.8323 13.9472 13.8463 14.0396 13.866Z" stroke="white" stroke-width="0.323954" mask="url(#path-1-outside-1_4422_435)"/>
</svg>
