<svg width="17" height="17" viewBox="0 0 17 17" fill="none" xmlns="http://www.w3.org/2000/svg">
<path d="M4.63505 15.5295H1.73255V6.1826H4.63505V15.5295ZM3.18224 4.9076C2.25411 4.9076 1.5013 4.13885 1.5013 3.21072C1.5013 2.76491 1.6784 2.33736 1.99363 2.02212C2.30887 1.70688 2.73642 1.52979 3.18224 1.52979C3.62805 1.52979 4.0556 1.70688 4.37084 2.02212C4.68607 2.33736 4.86317 2.76491 4.86317 3.21072C4.86317 4.13885 4.11005 4.9076 3.18224 4.9076ZM15.4982 15.5295H12.6019V10.9795C12.6019 9.8951 12.58 8.50447 11.0929 8.50447C9.5838 8.50447 9.35255 9.6826 9.35255 10.9013V15.5295H6.45317V6.1826H9.23692V7.4576H9.27755C9.66505 6.72322 10.6116 5.94822 12.0238 5.94822C14.9613 5.94822 15.5013 7.8826 15.5013 10.3951V15.5295H15.4982Z" fill="#202A3F"/>
</svg>
