<svg width="150" height="45" viewBox="0 0 150 45" fill="none" xmlns="http://www.w3.org/2000/svg">
<path d="M65.3948 20.6004C66.1828 19.8124 66.5527 18.7993 66.5527 17.5288V17.3198C66.5527 16.4835 66.3758 15.6955 66.0059 15.02C65.6521 14.3446 65.1696 13.83 64.5585 13.4601C63.9474 13.0902 63.288 12.9133 62.5322 12.9133C61.2617 12.9133 60.2968 13.3154 59.6053 14.1677C58.9138 14.9879 58.56 16.0493 58.56 17.368C58.56 18.7028 58.9138 19.7803 59.5731 20.5844C60.2646 21.4045 61.2296 21.8388 62.5322 21.8388C63.6901 21.7744 64.6389 21.3885 65.3948 20.6004ZM58.6243 23.5917C57.579 23.0127 56.7588 22.1765 56.1316 21.099C55.4883 20.0215 55.1989 18.751 55.1989 17.3037C55.1989 15.1487 55.81 13.4119 57 12.1092C58.2222 10.8066 59.8465 10.1633 61.905 10.1633C63.0307 10.1633 64.1082 10.4528 65.041 10.9996C66.0059 11.5785 66.6331 12.254 66.9547 13.0259L66.81 10.7101V2.2832H69.9459V24.1385H66.8904L66.826 21.7262C66.4722 22.4499 65.8611 23.061 64.9927 23.6078C64.0921 24.1545 63.1111 24.4279 62.0015 24.4279C60.8114 24.4923 59.6696 24.1706 58.6243 23.5917Z" fill="white"/>
<path d="M73.8699 10.5332H77.2149V24.1706H73.8699V10.5332ZM73.9664 7.33287C73.5643 6.93083 73.3553 6.40012 73.3553 5.78901C73.3553 5.24223 73.5643 4.74369 73.9664 4.37381C74.3684 3.97176 74.8991 3.7627 75.5103 3.7627C76.1214 3.7627 76.6199 3.97176 77.0219 4.37381C77.424 4.77586 77.6331 5.24223 77.6331 5.78901C77.6331 6.40012 77.424 6.91474 77.0219 7.33287C76.6199 7.73492 76.0892 7.97615 75.4781 7.97615C74.8831 7.97615 74.3684 7.78316 73.9664 7.33287Z" fill="white"/>
<path d="M90.4503 20.6002C91.2383 19.8122 91.6082 18.799 91.6082 17.5286V17.3195C91.6082 16.4833 91.4313 15.6952 91.0936 15.0198C90.7398 14.3444 90.2573 13.8298 89.6462 13.4599C89.0351 13.09 88.3757 12.9131 87.6199 12.9131C86.3494 12.9131 85.3845 13.3151 84.693 14.1675C84.0015 14.9876 83.6477 16.049 83.6477 17.3678C83.6477 18.7026 84.0015 19.78 84.6608 20.5841C85.3524 21.4043 86.3173 21.8385 87.6199 21.8385C88.7456 21.7742 89.6945 21.3882 90.4503 20.6002ZM84.6769 30.9087C83.6959 30.6192 82.9883 30.3941 82.5863 30.1207L83.2778 27.1616C84.5804 27.9979 86.0117 28.4321 87.5395 28.4321C88.7295 28.4321 89.7105 28.1426 90.5307 27.5637C91.3509 26.9847 91.7529 25.8751 91.7851 24.2026V21.7581C91.3831 22.5461 90.7076 23.1733 89.7588 23.704C88.826 24.2186 87.8129 24.492 86.6871 24.492C85.4971 24.492 84.3874 24.2026 83.4386 23.6236C82.4576 23.0447 81.6696 22.2084 81.0907 21.0988C80.5117 19.9891 80.2222 18.7508 80.2222 17.3034C80.2222 15.9043 80.4795 14.6982 81.0424 13.5885C81.5892 12.511 82.3772 11.6748 83.3582 11.0637C84.3714 10.4526 85.5292 10.1631 86.8962 10.1631C87.6842 10.1631 88.4401 10.3078 89.0994 10.5651C89.7909 10.8546 90.3699 11.1762 90.8684 11.5783C91.367 11.9803 91.6886 12.3985 91.8333 12.8005L91.8977 10.5008H94.9211V24.0578C94.9211 26.3736 94.3421 28.1587 93.1521 29.397C91.962 30.6353 90.1287 31.2786 87.636 31.2786C86.655 31.3268 85.6579 31.1821 84.6769 30.9087Z" fill="white"/>
<path d="M98.7003 10.5332H102.045V24.1706H98.7003V10.5332ZM98.8129 7.33287C98.4108 6.93083 98.2018 6.40012 98.2018 5.78901C98.2018 5.24223 98.4108 4.74369 98.8129 4.37381C99.2149 3.97176 99.7456 3.7627 100.357 3.7627C100.968 3.7627 101.466 3.97176 101.868 4.37381C102.27 4.77586 102.512 5.24223 102.512 5.78901C102.512 6.40012 102.303 6.91474 101.901 7.33287C101.499 7.73492 100.968 7.97615 100.357 7.97615C99.7135 7.97615 99.2149 7.78316 98.8129 7.33287Z" fill="white"/>
<path d="M113.045 20.5199C111.92 19.8766 111.019 18.9278 110.311 17.7056C109.636 16.4512 109.298 14.9717 109.298 13.267C109.298 11.5301 109.62 10.0506 110.279 8.79622C110.923 7.54183 111.823 6.62517 112.949 5.98189C114.075 5.33862 115.329 5.01698 116.728 5.01698C118.127 5.01698 119.366 5.33862 120.475 5.98189C121.601 6.62517 122.485 7.54183 123.145 8.79622C123.82 10.0506 124.126 11.5301 124.126 13.267C124.126 14.8269 123.868 16.1939 123.306 17.3679C122.759 18.5257 122.003 19.4585 121.038 20.15L119.768 18.0594H116.423L118.433 21.3079C117.918 21.4205 117.323 21.4848 116.712 21.4848C115.393 21.4848 114.171 21.1632 113.045 20.5199ZM111.244 3.32838C109.556 4.22897 108.253 5.5316 107.272 7.25236C106.291 8.94096 105.792 10.9351 105.792 13.2027C105.792 15.4702 106.291 17.4483 107.272 19.1529C108.253 20.8737 109.588 22.1763 111.244 23.1091C112.933 24.0418 114.75 24.5082 116.728 24.5082C117.886 24.5082 119.044 24.3313 120.186 24.0097L122.132 27.0009H125.412L122.711 22.8196C124.222 21.8547 125.444 20.5842 126.345 18.9278C127.246 17.2714 127.68 15.3898 127.68 13.2348C127.68 10.9351 127.181 8.97312 126.2 7.28452C125.219 5.59592 123.885 4.29329 122.228 3.36055C120.539 2.45996 118.722 1.99359 116.744 1.99359C114.75 1.96142 112.917 2.4278 111.244 3.32838ZM135.705 3.42487C133.984 4.38978 132.681 5.72458 131.749 7.42926C130.816 9.15002 130.333 11.0638 130.333 13.2348C130.333 15.2611 130.768 17.1588 131.636 18.8313C132.504 20.5199 133.791 21.8869 135.415 22.9C137.072 23.9132 139.018 24.4117 141.285 24.4117C142.475 24.4117 143.633 24.2348 144.791 23.8649C145.949 23.495 146.737 23.1091 147.171 22.7392L146.19 19.9249C144.566 20.9059 142.877 21.4044 141.14 21.4044C139.629 21.4044 138.358 21.0506 137.249 20.3269C136.171 19.6032 135.335 18.6383 134.788 17.4161C134.241 16.1939 133.952 14.8269 133.952 13.3152C133.952 11.6588 134.273 10.2114 134.917 8.95704C135.56 7.70265 136.428 6.75382 137.522 6.07838C138.632 5.40294 139.87 5.06522 141.237 5.06522C143.183 5.06522 144.743 5.57984 145.965 6.65733L147.268 3.95558V3.55353C147.059 3.40879 146.753 3.19973 146.303 3.00675C145.756 2.74944 145.048 2.50821 144.212 2.28306C143.376 2.074 142.475 1.96143 141.478 1.96143C139.339 1.96143 137.425 2.45996 135.705 3.42487Z" fill="#FC5027"/>
<path d="M77.1506 34.0449V37.3899C77.1506 37.6794 77.0863 37.9367 76.9415 38.1779C76.7968 38.4031 76.6199 38.58 76.3947 38.7247C76.1696 38.8694 75.9284 38.9338 75.7032 38.9338C75.3816 38.9338 75.1243 38.8694 74.9474 38.7247C74.7705 38.6121 74.6579 38.4031 74.6257 38.1136C74.5614 37.8563 74.5453 37.4703 74.5453 36.9879V34.0288H73.1462V37.3095C73.1462 38.1458 73.2909 38.8212 73.6126 39.3197C73.9021 39.7861 74.481 40.0434 75.269 40.0434C75.7354 40.0434 76.1053 39.963 76.4269 39.8183C76.7485 39.6414 77.0058 39.4162 77.2471 39.0624L77.3918 39.9309H78.5175V34.0449H77.1506ZM118.787 34.0449V37.3899C118.787 37.6794 118.722 37.9367 118.577 38.1779C118.433 38.4031 118.256 38.58 118.031 38.7247C117.806 38.8694 117.564 38.9338 117.339 38.9338C117.018 38.9338 116.76 38.8694 116.583 38.7247C116.406 38.6121 116.294 38.4031 116.262 38.1136C116.197 37.8563 116.181 37.4703 116.181 36.9879V34.0288H114.782V37.3095C114.782 38.1458 114.927 38.8212 115.249 39.3197C115.538 39.7861 116.117 40.0434 116.905 40.0434C117.371 40.0434 117.741 39.963 118.063 39.8183C118.385 39.6414 118.642 39.4162 118.883 39.0624L119.028 39.9309H120.154V34.0449H118.787ZM133.389 39.9469H134.804V34.061H133.389V39.9469ZM145.096 34.0449L143.794 37.792L143.504 38.6925L143.215 37.792L141.961 34.0449H140.401L142.845 40.1078L141.591 43.099H143.006L146.608 34.0449H145.096ZM61.5673 38.3709C61.2456 38.001 61.1009 37.5347 61.1009 37.004C61.1009 36.4572 61.2456 35.9586 61.5351 35.5887C61.8246 35.2189 62.2266 35.042 62.693 35.042C63.1915 35.042 63.5936 35.251 63.9152 35.6209C64.2369 35.9908 64.3816 36.4572 64.3816 37.02C64.3816 37.5668 64.2368 38.0332 63.9474 38.4192C63.6579 38.789 63.2719 38.9659 62.7895 38.9659C62.2909 38.9338 61.8889 38.7569 61.5673 38.3709ZM61.133 34.3183C60.6667 34.5756 60.2968 34.9616 60.0556 35.4279C59.7983 35.8943 59.6857 36.4089 59.6857 36.9718C59.6857 37.5507 59.7983 38.0814 60.0556 38.5317C60.3129 38.9981 60.6667 39.368 61.133 39.6414C61.5994 39.8987 62.1462 40.0434 62.7573 40.0434C63.3684 40.0434 63.883 39.8987 64.3494 39.6414C64.8158 39.3841 65.1696 38.9981 65.4269 38.5317C65.6842 38.0654 65.7968 37.5507 65.7968 36.9718C65.7968 36.425 65.6842 35.8943 65.4269 35.4279C65.1696 34.9616 64.8158 34.5917 64.3494 34.3183C63.883 34.061 63.3363 33.9162 62.7252 33.9162C62.1462 33.9002 61.5994 34.0127 61.133 34.3183ZM68.386 34.254C67.9196 34.5113 67.5658 34.8651 67.3085 35.2993C67.0512 35.7656 66.9386 36.2803 66.9386 36.8914C66.9386 37.5347 67.0833 38.0814 67.3407 38.58C67.598 39.0464 67.9839 39.4162 68.4503 39.6896C68.9167 39.963 69.4313 40.0595 70.0102 40.0595C70.4123 40.0595 70.7982 39.9952 71.136 39.8826C71.4898 39.77 71.7471 39.6575 71.924 39.5127L71.4254 38.5317C71.2807 38.6443 71.1038 38.7408 70.8465 38.789C70.5892 38.8695 70.3319 38.9016 70.0585 38.9016C69.5439 38.9016 69.1257 38.7247 68.8041 38.387C68.5146 38.0332 68.3699 37.5507 68.3699 36.9075C68.3699 36.3607 68.5146 35.9265 68.8041 35.5727C69.0936 35.251 69.4956 35.0741 70.0585 35.0741C70.5249 35.0741 70.9269 35.251 71.2807 35.6209L71.8918 34.5113C71.7149 34.3344 71.4576 34.1896 71.1038 34.0771C70.7822 33.9645 70.3801 33.9002 69.9459 33.9002C69.367 33.9002 68.8202 34.0127 68.386 34.254ZM80.9298 34.3344C80.4956 34.6238 80.2866 35.058 80.2866 35.5887C80.2866 36.0551 80.4313 36.425 80.7208 36.7145C81.0102 37.004 81.4123 37.2291 81.943 37.4382L82.4415 37.6151C82.7953 37.7276 83.0205 37.8402 83.1652 37.9367C83.31 38.0171 83.3743 38.1619 83.3743 38.3388C83.3743 38.7086 83.0526 38.9177 82.3933 38.9177C81.7178 38.9177 81.1389 38.7408 80.6564 38.3709L80.1901 39.4806C80.367 39.6253 80.6886 39.7379 81.1228 39.8504C81.557 39.963 81.9912 40.0273 82.3933 40.0273C83.0687 40.0273 83.6155 39.8826 84.0819 39.5931C84.5161 39.3037 84.7573 38.8694 84.7573 38.2905C84.7573 37.8563 84.6126 37.5025 84.3553 37.2452C84.098 36.9879 83.6798 36.7306 83.133 36.5215C82.9079 36.4411 82.7792 36.3768 82.731 36.3768C82.3611 36.2642 82.0877 36.1516 81.943 36.023C81.7661 35.9104 81.7178 35.7656 81.7178 35.5566C81.7178 35.1867 82.0073 35.0098 82.6184 35.0098C82.9079 35.0098 83.1974 35.042 83.4386 35.1224C83.6798 35.2028 83.8406 35.2993 83.9532 35.4119L84.4518 34.3022C84.2749 34.1896 84.0175 34.0931 83.6637 34.0127C83.3099 33.9323 82.9883 33.9002 82.6506 33.9002C81.9108 33.9002 81.3319 34.0449 80.9298 34.3344ZM90.8363 38.3709C90.5146 38.001 90.3699 37.5347 90.3699 37.004C90.3699 36.4572 90.5146 35.9586 90.8041 35.5887C91.0936 35.2189 91.4956 35.042 91.962 35.042C92.4605 35.042 92.8626 35.251 93.1842 35.6209C93.5059 35.9908 93.6506 36.4572 93.6506 37.02C93.6506 37.5668 93.5059 38.0332 93.2164 38.4192C92.9269 38.8051 92.5409 38.9659 92.0585 38.9659C91.5599 38.9499 91.1418 38.7569 90.8363 38.3709ZM90.386 34.3183C89.9196 34.5756 89.5497 34.9616 89.3085 35.4279C89.0512 35.8943 88.9386 36.4089 88.9386 36.9718C88.9386 37.5507 89.0512 38.0814 89.3085 38.5317C89.5658 38.9981 89.9196 39.368 90.386 39.6414C90.8523 39.8987 91.3991 40.0434 92.0102 40.0434C92.6214 40.0434 93.136 39.8987 93.6023 39.6414C94.0687 39.3841 94.4225 38.9981 94.6798 38.5317C94.9371 38.0654 95.0497 37.5507 95.0497 36.9718C95.0497 36.425 94.9371 35.8943 94.6798 35.4279C94.4225 34.9616 94.0687 34.5917 93.6023 34.3183C93.136 34.061 92.5892 33.9162 91.9781 33.9162C91.383 33.9002 90.8523 34.0127 90.386 34.3183ZM98.7003 34.254C98.3465 34.4791 98.0892 34.7686 97.9444 35.1224V34.0449H96.5775V39.9309H97.9766V37.004C97.9766 36.6019 98.057 36.2481 98.2339 35.9586C98.4108 35.6692 98.636 35.444 98.9094 35.2671C99.1667 35.1224 99.424 35.042 99.6974 35.042C100.164 35.042 100.453 35.2189 100.598 35.5405C100.743 35.8621 100.807 36.4089 100.807 37.1326V39.9148H102.206V37.0683C102.206 36.3446 102.142 35.7656 102.029 35.2993C101.917 34.8329 101.708 34.4791 101.386 34.254C101.064 33.9966 100.598 33.8841 99.9868 33.8841C99.4561 33.9002 99.038 34.0127 98.7003 34.254ZM108.591 38.3709C108.301 38.0171 108.156 37.5507 108.156 36.9718C108.156 36.425 108.301 35.9586 108.591 35.6048C108.88 35.251 109.314 35.0902 109.861 35.0902C110.183 35.0902 110.472 35.1706 110.73 35.3154C110.987 35.4923 111.196 35.6852 111.373 35.9908C111.518 36.2803 111.598 36.6019 111.598 36.9718V37.0522C111.598 37.599 111.421 38.0332 111.099 38.387C110.778 38.7408 110.344 38.8855 109.877 38.8855C109.314 38.9016 108.88 38.7247 108.591 38.3709ZM108.108 34.254C107.674 34.4791 107.32 34.8329 107.095 35.2993C106.838 35.7656 106.725 36.3124 106.725 36.9879C106.725 37.599 106.838 38.1458 107.095 38.6121C107.352 39.0785 107.674 39.4484 108.108 39.7218C108.542 39.9791 109.041 40.0917 109.556 40.0917C110.054 40.0917 110.488 40.0113 110.858 39.8344C111.228 39.6575 111.501 39.4002 111.727 39.0785V43.0829H113.094V34.0771H111.759V35.1545C111.292 34.3344 110.601 33.9323 109.604 33.9323C109.009 33.9002 108.542 34.0127 108.108 34.254ZM123.547 38.3709C123.257 38.0171 123.113 37.5507 123.113 36.9718C123.113 36.425 123.257 35.9586 123.547 35.6048C123.836 35.251 124.27 35.0902 124.817 35.0902C125.139 35.0902 125.428 35.1706 125.686 35.3154C125.943 35.4923 126.152 35.6852 126.329 35.9908C126.474 36.2803 126.554 36.6019 126.554 36.9718V37.0522C126.554 37.599 126.377 38.0332 126.056 38.387C125.734 38.7408 125.3 38.8855 124.833 38.8855C124.27 38.9016 123.836 38.7247 123.547 38.3709ZM123 34.2861C122.566 34.5434 122.244 34.8972 121.987 35.3636C121.762 35.83 121.633 36.3446 121.633 36.9879C121.633 37.599 121.778 38.1458 122.035 38.6121C122.292 39.0785 122.678 39.4323 123.113 39.6896C123.547 39.9469 124.045 40.0595 124.56 40.0595C125.026 40.0595 125.461 39.9469 125.83 39.7057C126.2 39.4806 126.474 39.2072 126.618 38.8855L126.651 39.9309H127.953V34.0449H126.651L126.618 35.0259C126.554 34.849 126.409 34.6721 126.216 34.5113C126.007 34.3344 125.75 34.1896 125.461 34.0771C125.171 33.9645 124.849 33.9002 124.496 33.9002C123.949 33.9002 123.434 34.0127 123 34.2861ZM137.249 31.6326V34.0449H136.203V35.1706H137.249V39.9309H138.648V35.1706H140.015V34.0449H138.648V31.3431L137.249 31.6326ZM133.421 31.4075C133.244 31.5844 133.164 31.7773 133.164 32.0186C133.164 32.2759 133.244 32.5171 133.421 32.694C133.598 32.8709 133.823 32.9513 134.096 32.9513C134.37 32.9513 134.595 32.8709 134.772 32.694C134.949 32.5171 135.029 32.292 135.029 32.0186C135.029 31.7934 134.949 31.5844 134.772 31.4075C134.595 31.2306 134.37 31.1502 134.129 31.1502C133.823 31.1502 133.598 31.2306 133.421 31.4075ZM129.963 39.9469H131.33V30.5069H129.963V39.9469ZM56.4854 31.0054C56.1155 31.4396 55.9386 32.0186 55.9386 32.8066V34.0771H54.9737V35.1867H55.9386V39.9791H57.3056V35.1867H58.7047V34.0771H57.3056V32.7744C57.3056 32.0186 57.595 31.6648 58.174 31.6648C58.3187 31.6648 58.4635 31.6969 58.576 31.7452C58.6886 31.8095 58.7851 31.8578 58.8333 31.9542L59.0907 30.6516C58.7208 30.4747 58.3991 30.4265 58.1097 30.4265C57.4181 30.3621 56.8553 30.5712 56.4854 31.0054Z" fill="#FC5027"/>
<path d="M37.2836 44.5303H10.7325C5.90789 44.5303 2 40.6224 2 35.7978V9.26273C2 4.43817 5.90789 0.530273 10.7325 0.530273H37.2836C42.1082 0.530273 46.0161 4.43817 46.0161 9.26273V35.8139C46.0161 40.6385 42.1082 44.5303 37.2836 44.5303Z" fill="#FC5027"/>
<path d="M40.3393 14.3609C40.5322 14.4895 40.6287 14.7147 40.6287 14.9398C40.5805 16.0012 40.4518 17.0626 40.2428 18.0758C38.3129 27.6767 29.8217 34.9135 19.658 34.9135C15.2194 34.9135 11.1024 33.5305 7.70915 31.1825C7.51617 31.0539 7.41968 30.8287 7.41968 30.6036C7.95038 19.4749 17.1492 10.6299 28.4065 10.6299C28.7603 10.6299 29.1141 10.646 29.4679 10.662C33.4723 10.855 37.2194 12.1898 40.3393 14.3609Z" fill="white"/>
<path d="M3.57611 20.8098C3.89775 23.7528 4.71792 26.1329 5.47377 27.7732C5.55418 27.9501 5.82757 27.918 5.85974 27.7089C6.93722 20.5846 13.0644 12.1417 21.2179 9.92236C14.2706 10.6943 6.72816 16.6446 5.47377 22.5305C5.26471 23.399 3.91383 19.9414 3.57611 20.8098Z" fill="white"/>
<path d="M44.4401 24.7335C44.1185 21.7906 43.2983 19.4105 42.5424 17.7701C42.462 17.5932 42.1886 17.6254 42.1565 17.8344C41.079 24.9587 34.9518 33.4017 26.7983 35.621C33.7456 34.849 41.288 28.8987 42.5424 23.0128C42.7515 22.1444 44.1024 25.602 44.4401 24.7335Z" fill="white"/>
<path d="M28.5994 20.488C27.345 17.9632 24.2573 16.9179 21.7325 18.1723C19.1915 19.4266 18.1784 22.5144 19.4328 25.0392C20.7032 27.5802 23.7749 28.6094 26.2997 27.355C28.8407 26.1006 29.8538 23.0129 28.5994 20.488ZM24.0161 26.4544C21.9737 26.4544 20.3333 24.798 20.3333 22.7717C20.3333 20.7293 21.9898 19.0889 24.0161 19.0889C26.0585 19.0889 27.6988 20.7454 27.6988 22.7717C27.6988 24.8141 26.0585 26.4544 24.0161 26.4544Z" fill="#FC5027"/>
<path d="M26.943 28.6415C23.7105 30.2497 19.7705 28.9149 18.1623 25.6825C16.5541 22.45 17.8728 18.4939 21.1053 16.9018C24.3377 15.2936 28.2778 16.6284 29.886 19.8608C31.462 23.1094 30.1594 27.0333 26.943 28.6415ZM20.462 15.5991C16.5219 17.5611 14.8816 22.3696 16.8436 26.3096C18.8056 30.2658 23.598 31.874 27.5702 29.912C31.5102 27.95 33.1184 23.1576 31.1564 19.2015C29.2105 15.2775 24.4021 13.6532 20.462 15.5991Z" fill="#FC5027"/>
<path d="M24.0161 25.0551C25.2685 25.0551 26.2837 24.0399 26.2837 22.7876C26.2837 21.5352 25.2685 20.52 24.0161 20.52C22.7638 20.52 21.7486 21.5352 21.7486 22.7876C21.7486 24.0399 22.7638 25.0551 24.0161 25.0551Z" fill="#FC5027"/>
</svg>
