<svg width="150" height="44" viewBox="0 0 150 44" fill="none" xmlns="http://www.w3.org/2000/svg">
<path d="M65.3948 20.0699C66.1828 19.2819 66.5527 18.2688 66.5527 16.9983V16.7892C66.5527 15.953 66.3758 15.165 66.0059 14.4895C65.6521 13.8141 65.1696 13.2995 64.5585 12.9296C63.9474 12.5597 63.288 12.3828 62.5322 12.3828C61.2617 12.3828 60.2968 12.7848 59.6053 13.6372C58.9138 14.4574 58.56 15.5188 58.56 16.8375C58.56 18.1723 58.9138 19.2498 59.5731 20.0539C60.2646 20.874 61.2296 21.3082 62.5322 21.3082C63.6901 21.2439 64.6389 20.8579 65.3948 20.0699ZM58.6243 23.0612C57.579 22.4822 56.7588 21.646 56.1316 20.5685C55.4883 19.491 55.1989 18.2205 55.1989 16.7732C55.1989 14.6182 55.81 12.8813 57 11.5787C58.2222 10.2761 59.8465 9.6328 61.905 9.6328C63.0307 9.6328 64.1082 9.92227 65.041 10.4691C66.0059 11.048 66.6331 11.7234 66.9547 12.4954L66.81 10.1796V1.75269H69.9459V23.6079H66.8904L66.826 21.1957C66.4722 21.9193 65.8611 22.5305 64.9927 23.0772C64.0921 23.624 63.1111 23.8974 62.0015 23.8974C60.8114 23.9618 59.6696 23.6401 58.6243 23.0612Z" fill="#202A3F"/>
<path d="M73.8699 10.0029H77.2149V23.6403H73.8699V10.0029ZM73.9664 6.8026C73.5643 6.40055 73.3553 5.86985 73.3553 5.25874C73.3553 4.71195 73.5643 4.21342 73.9664 3.84354C74.3684 3.44149 74.8991 3.23242 75.5103 3.23242C76.1214 3.23242 76.6199 3.44149 77.0219 3.84354C77.424 4.24558 77.6331 4.71195 77.6331 5.25874C77.6331 5.86985 77.424 6.38447 77.0219 6.8026C76.6199 7.20465 76.0892 7.44587 75.4781 7.44587C74.8831 7.44587 74.3684 7.25289 73.9664 6.8026Z" fill="#202A3F"/>
<path d="M90.4503 20.0699C91.2383 19.2819 91.6082 18.2688 91.6082 16.9983V16.7892C91.6082 15.953 91.4313 15.165 91.0936 14.4895C90.7398 13.8141 90.2573 13.2995 89.6462 12.9296C89.0351 12.5597 88.3757 12.3828 87.6199 12.3828C86.3494 12.3828 85.3845 12.7849 84.693 13.6372C84.0015 14.4574 83.6477 15.5188 83.6477 16.8375C83.6477 18.1723 84.0015 19.2498 84.6608 20.0539C85.3524 20.874 86.3173 21.3082 87.6199 21.3082C88.7456 21.2439 89.6945 20.858 90.4503 20.0699ZM84.6769 30.3784C83.6959 30.0889 82.9883 29.8638 82.5863 29.5904L83.2778 26.6313C84.5804 27.4676 86.0117 27.9018 87.5395 27.9018C88.7295 27.9018 89.7105 27.6123 90.5307 27.0334C91.3509 26.4544 91.7529 25.3448 91.7851 23.6723V21.2278C91.3831 22.0158 90.7076 22.643 89.7588 23.1737C88.826 23.6884 87.8129 23.9618 86.6871 23.9618C85.4971 23.9618 84.3874 23.6723 83.4386 23.0933C82.4576 22.5144 81.6696 21.6781 81.0907 20.5685C80.5117 19.4588 80.2222 18.2205 80.2222 16.7732C80.2222 15.374 80.4795 14.1679 81.0424 13.0582C81.5892 11.9808 82.3772 11.1445 83.3582 10.5334C84.3714 9.92228 85.5292 9.63281 86.8962 9.63281C87.6842 9.63281 88.4401 9.77755 89.0994 10.0349C89.7909 10.3243 90.3699 10.646 90.8684 11.048C91.367 11.4501 91.6886 11.8682 91.8333 12.2702L91.8977 9.97053H94.9211V23.5275C94.9211 25.8433 94.3421 27.6284 93.1521 28.8667C91.962 30.105 90.1287 30.7483 87.636 30.7483C86.655 30.7965 85.6579 30.6518 84.6769 30.3784Z" fill="#202A3F"/>
<path d="M98.7003 10.0029H102.045V23.6403H98.7003V10.0029ZM98.8129 6.8026C98.4108 6.40055 98.2018 5.86985 98.2018 5.25874C98.2018 4.71195 98.4108 4.21342 98.8129 3.84354C99.2149 3.44149 99.7456 3.23242 100.357 3.23242C100.968 3.23242 101.466 3.44149 101.868 3.84354C102.27 4.24558 102.512 4.71195 102.512 5.25874C102.512 5.86985 102.303 6.38447 101.901 6.8026C101.499 7.20465 100.968 7.44587 100.357 7.44587C99.7135 7.44587 99.2149 7.25289 98.8129 6.8026Z" fill="#202A3F"/>
<path d="M113.045 19.9896C111.92 19.3463 111.019 18.3975 110.311 17.1753C109.636 15.9209 109.298 14.4414 109.298 12.7367C109.298 10.9999 109.62 9.52033 110.279 8.26595C110.923 7.01156 111.823 6.09489 112.949 5.45162C114.075 4.80834 115.329 4.48671 116.728 4.48671C118.127 4.48671 119.366 4.80834 120.475 5.45162C121.601 6.09489 122.485 7.01156 123.145 8.26595C123.82 9.52033 124.126 10.9999 124.126 12.7367C124.126 14.2966 123.868 15.6636 123.306 16.8376C122.759 17.9955 122.003 18.9282 121.038 19.6197L119.768 17.5291H116.423L118.433 20.7776C117.918 20.8902 117.323 20.9545 116.712 20.9545C115.393 20.9545 114.171 20.6329 113.045 19.9896ZM111.244 2.79811C109.556 3.6987 108.253 5.00133 107.272 6.72209C106.291 8.41068 105.792 10.4048 105.792 12.6724C105.792 14.9399 106.291 16.918 107.272 18.6227C108.253 20.3434 109.588 21.6461 111.244 22.5788C112.933 23.5116 114.75 23.9779 116.728 23.9779C117.886 23.9779 119.044 23.801 120.186 23.4794L122.132 26.4706H125.412L122.711 22.2893C124.222 21.3244 125.444 20.054 126.345 18.3975C127.246 16.7411 127.68 14.8595 127.68 12.7045C127.68 10.4048 127.181 8.44284 126.2 6.75425C125.219 5.06565 123.885 3.76302 122.228 2.83027C120.539 1.92969 118.722 1.46331 116.744 1.46331C114.75 1.43115 112.917 1.89753 111.244 2.79811ZM135.705 2.8946C133.984 3.85951 132.681 5.19431 131.749 6.89899C130.816 8.61975 130.333 10.5335 130.333 12.7045C130.333 14.7309 130.768 16.6285 131.636 18.301C132.504 19.9896 133.791 21.3566 135.415 22.3697C137.072 23.3829 139.018 23.8814 141.285 23.8814C142.475 23.8814 143.633 23.7045 144.791 23.3347C145.949 22.9648 146.737 22.5788 147.171 22.2089L146.19 19.3946C144.566 20.3756 142.877 20.8741 141.14 20.8741C139.629 20.8741 138.358 20.5203 137.249 19.7966C136.171 19.073 135.335 18.108 134.788 16.8858C134.241 15.6636 133.952 14.2966 133.952 12.7849C133.952 11.1285 134.273 9.68115 134.917 8.42676C135.56 7.17238 136.428 6.22355 137.522 5.54811C138.632 4.87267 139.87 4.53495 141.237 4.53495C143.183 4.53495 144.743 5.04957 145.965 6.12705L147.268 3.4253V3.02326C147.059 2.87852 146.753 2.66946 146.303 2.47647C145.756 2.21916 145.048 1.97794 144.212 1.75279C143.376 1.54373 142.475 1.43115 141.478 1.43115C139.339 1.43115 137.425 1.92969 135.705 2.8946Z" fill="#FC5027"/>
<path d="M77.1506 33.5146V36.8596C77.1506 37.1491 77.0863 37.4064 76.9415 37.6477C76.7968 37.8728 76.6199 38.0497 76.3947 38.1944C76.1696 38.3392 75.9284 38.4035 75.7032 38.4035C75.3816 38.4035 75.1243 38.3392 74.9474 38.1944C74.7705 38.0819 74.6579 37.8728 74.6257 37.5833C74.5614 37.326 74.5453 36.9401 74.5453 36.4576V33.4985H73.1462V36.7792C73.1462 37.6155 73.2909 38.2909 73.6126 38.7895C73.9021 39.2558 74.481 39.5132 75.269 39.5132C75.7354 39.5132 76.1053 39.4327 76.4269 39.288C76.7485 39.1111 77.0058 38.886 77.2471 38.5322L77.3918 39.4006H78.5175V33.5146H77.1506ZM118.787 33.5146V36.8596C118.787 37.1491 118.722 37.4064 118.577 37.6477C118.433 37.8728 118.256 38.0497 118.031 38.1944C117.806 38.3392 117.564 38.4035 117.339 38.4035C117.018 38.4035 116.76 38.3392 116.583 38.1944C116.406 38.0819 116.294 37.8728 116.262 37.5833C116.197 37.326 116.181 36.9401 116.181 36.4576V33.4985H114.782V36.7792C114.782 37.6155 114.927 38.2909 115.249 38.7895C115.538 39.2558 116.117 39.5132 116.905 39.5132C117.371 39.5132 117.741 39.4327 118.063 39.288C118.385 39.1111 118.642 38.886 118.883 38.5322L119.028 39.4006H120.154V33.5146H118.787ZM133.389 39.4167H134.804V33.5307H133.389V39.4167ZM145.096 33.5146L143.794 37.2617L143.504 38.1623L143.215 37.2617L141.961 33.5146H140.401L142.845 39.5775L141.591 42.5687H143.006L146.608 33.5146H145.096ZM61.5673 37.8406C61.2456 37.4708 61.1009 37.0044 61.1009 36.4737C61.1009 35.9269 61.2456 35.4284 61.5351 35.0585C61.8246 34.6886 62.2266 34.5117 62.693 34.5117C63.1915 34.5117 63.5936 34.7208 63.9152 35.0906C64.2369 35.4605 64.3816 35.9269 64.3816 36.4898C64.3816 37.0365 64.2368 37.5029 63.9474 37.8889C63.6579 38.2588 63.2719 38.4357 62.7895 38.4357C62.2909 38.4035 61.8889 38.2266 61.5673 37.8406ZM61.133 33.788C60.6667 34.0453 60.2968 34.4313 60.0556 34.8977C59.7983 35.364 59.6857 35.8787 59.6857 36.4415C59.6857 37.0205 59.7983 37.5512 60.0556 38.0015C60.3129 38.4678 60.6667 38.8377 61.133 39.1111C61.5994 39.3684 62.1462 39.5132 62.7573 39.5132C63.3684 39.5132 63.883 39.3684 64.3494 39.1111C64.8158 38.8538 65.1696 38.4678 65.4269 38.0015C65.6842 37.5351 65.7968 37.0205 65.7968 36.4415C65.7968 35.8947 65.6842 35.364 65.4269 34.8977C65.1696 34.4313 64.8158 34.0614 64.3494 33.788C63.883 33.5307 63.3363 33.386 62.7252 33.386C62.1462 33.3699 61.5994 33.4825 61.133 33.788ZM68.386 33.7237C67.9196 33.981 67.5658 34.3348 67.3085 34.769C67.0512 35.2354 66.9386 35.75 66.9386 36.3611C66.9386 37.0044 67.0833 37.5512 67.3407 38.0497C67.598 38.5161 67.9839 38.886 68.4503 39.1594C68.9167 39.4327 69.4313 39.5292 70.0102 39.5292C70.4123 39.5292 70.7982 39.4649 71.136 39.3523C71.4898 39.2398 71.7471 39.1272 71.924 38.9825L71.4254 38.0015C71.2807 38.114 71.1038 38.2105 70.8465 38.2588C70.5892 38.3392 70.3319 38.3713 70.0585 38.3713C69.5439 38.3713 69.1257 38.1944 68.8041 37.8567C68.5146 37.5029 68.3699 37.0205 68.3699 36.3772C68.3699 35.8304 68.5146 35.3962 68.8041 35.0424C69.0936 34.7208 69.4956 34.5439 70.0585 34.5439C70.5249 34.5439 70.9269 34.7208 71.2807 35.0906L71.8918 33.981C71.7149 33.8041 71.4576 33.6594 71.1038 33.5468C70.7822 33.4342 70.3801 33.3699 69.9459 33.3699C69.367 33.3699 68.8202 33.4825 68.386 33.7237ZM80.9298 33.8041C80.4956 34.0936 80.2866 34.5278 80.2866 35.0585C80.2866 35.5248 80.4313 35.8947 80.7208 36.1842C81.0102 36.4737 81.4123 36.6988 81.943 36.9079L82.4415 37.0848C82.7953 37.1974 83.0205 37.3099 83.1652 37.4064C83.31 37.4868 83.3743 37.6316 83.3743 37.8085C83.3743 38.1784 83.0526 38.3874 82.3933 38.3874C81.7178 38.3874 81.1389 38.2105 80.6564 37.8406L80.1901 38.9503C80.367 39.095 80.6886 39.2076 81.1228 39.3202C81.557 39.4327 81.9912 39.4971 82.3933 39.4971C83.0687 39.4971 83.6155 39.3523 84.0819 39.0629C84.5161 38.7734 84.7573 38.3392 84.7573 37.7602C84.7573 37.326 84.6126 36.9722 84.3553 36.7149C84.098 36.4576 83.6798 36.2003 83.133 35.9912C82.9079 35.9108 82.7792 35.8465 82.731 35.8465C82.3611 35.7339 82.0877 35.6213 81.943 35.4927C81.7661 35.3801 81.7178 35.2354 81.7178 35.0263C81.7178 34.6564 82.0073 34.4795 82.6184 34.4795C82.9079 34.4795 83.1974 34.5117 83.4386 34.5921C83.6798 34.6725 83.8406 34.769 83.9532 34.8816L84.4518 33.7719C84.2749 33.6594 84.0175 33.5629 83.6637 33.4825C83.3099 33.402 82.9883 33.3699 82.6506 33.3699C81.9108 33.3699 81.3319 33.5146 80.9298 33.8041ZM90.8363 37.8406C90.5146 37.4708 90.3699 37.0044 90.3699 36.4737C90.3699 35.9269 90.5146 35.4284 90.8041 35.0585C91.0936 34.6886 91.4956 34.5117 91.962 34.5117C92.4605 34.5117 92.8626 34.7208 93.1842 35.0906C93.5059 35.4605 93.6506 35.9269 93.6506 36.4898C93.6506 37.0365 93.5059 37.5029 93.2164 37.8889C92.9269 38.2749 92.5409 38.4357 92.0585 38.4357C91.5599 38.4196 91.1418 38.2266 90.8363 37.8406ZM90.386 33.788C89.9196 34.0453 89.5497 34.4313 89.3085 34.8977C89.0512 35.364 88.9386 35.8787 88.9386 36.4415C88.9386 37.0205 89.0512 37.5512 89.3085 38.0015C89.5658 38.4678 89.9196 38.8377 90.386 39.1111C90.8523 39.3684 91.3991 39.5132 92.0102 39.5132C92.6214 39.5132 93.136 39.3684 93.6023 39.1111C94.0687 38.8538 94.4225 38.4678 94.6798 38.0015C94.9371 37.5351 95.0497 37.0205 95.0497 36.4415C95.0497 35.8947 94.9371 35.364 94.6798 34.8977C94.4225 34.4313 94.0687 34.0614 93.6023 33.788C93.136 33.5307 92.5892 33.386 91.9781 33.386C91.383 33.3699 90.8523 33.4825 90.386 33.788ZM98.7003 33.7237C98.3465 33.9488 98.0892 34.2383 97.9444 34.5921V33.5146H96.5775V39.4006H97.9766V36.4737C97.9766 36.0716 98.057 35.7178 98.2339 35.4284C98.4108 35.1389 98.636 34.9137 98.9094 34.7368C99.1667 34.5921 99.424 34.5117 99.6974 34.5117C100.164 34.5117 100.453 34.6886 100.598 35.0102C100.743 35.3319 100.807 35.8787 100.807 36.6023V39.3845H102.206V36.538C102.206 35.8143 102.142 35.2354 102.029 34.769C101.917 34.3026 101.708 33.9488 101.386 33.7237C101.064 33.4664 100.598 33.3538 99.9868 33.3538C99.4561 33.3699 99.038 33.4825 98.7003 33.7237ZM108.591 37.8406C108.301 37.4868 108.156 37.0205 108.156 36.4415C108.156 35.8947 108.301 35.4284 108.591 35.0746C108.88 34.7208 109.314 34.5599 109.861 34.5599C110.183 34.5599 110.472 34.6403 110.73 34.7851C110.987 34.962 111.196 35.155 111.373 35.4605C111.518 35.75 111.598 36.0716 111.598 36.4415V36.5219C111.598 37.0687 111.421 37.5029 111.099 37.8567C110.778 38.2105 110.344 38.3553 109.877 38.3553C109.314 38.3713 108.88 38.1944 108.591 37.8406ZM108.108 33.7237C107.674 33.9488 107.32 34.3026 107.095 34.769C106.838 35.2354 106.725 35.7822 106.725 36.4576C106.725 37.0687 106.838 37.6155 107.095 38.0819C107.352 38.5482 107.674 38.9181 108.108 39.1915C108.542 39.4488 109.041 39.5614 109.556 39.5614C110.054 39.5614 110.488 39.481 110.858 39.3041C111.228 39.1272 111.501 38.8699 111.727 38.5482V42.5526H113.094V33.5468H111.759V34.6243C111.292 33.8041 110.601 33.402 109.604 33.402C109.009 33.3699 108.542 33.4825 108.108 33.7237ZM123.547 37.8406C123.257 37.4868 123.113 37.0205 123.113 36.4415C123.113 35.8947 123.257 35.4284 123.547 35.0746C123.836 34.7208 124.27 34.5599 124.817 34.5599C125.139 34.5599 125.428 34.6403 125.686 34.7851C125.943 34.962 126.152 35.155 126.329 35.4605C126.474 35.75 126.554 36.0716 126.554 36.4415V36.5219C126.554 37.0687 126.377 37.5029 126.056 37.8567C125.734 38.2105 125.3 38.3553 124.833 38.3553C124.27 38.3713 123.836 38.1944 123.547 37.8406ZM123 33.7558C122.566 34.0132 122.244 34.367 121.987 34.8333C121.762 35.2997 121.633 35.8143 121.633 36.4576C121.633 37.0687 121.778 37.6155 122.035 38.0819C122.292 38.5482 122.678 38.902 123.113 39.1594C123.547 39.4167 124.045 39.5292 124.56 39.5292C125.026 39.5292 125.461 39.4167 125.83 39.1754C126.2 38.9503 126.474 38.6769 126.618 38.3553L126.651 39.4006H127.953V33.5146H126.651L126.618 34.4956C126.554 34.3187 126.409 34.1418 126.216 33.981C126.007 33.8041 125.75 33.6594 125.461 33.5468C125.171 33.4342 124.849 33.3699 124.496 33.3699C123.949 33.3699 123.434 33.4825 123 33.7558ZM137.249 31.1023V33.5146H136.203V34.6403H137.249V39.4006H138.648V34.6403H140.015V33.5146H138.648V30.8129L137.249 31.1023ZM133.421 30.8772C133.244 31.0541 133.164 31.2471 133.164 31.4883C133.164 31.7456 133.244 31.9868 133.421 32.1637C133.598 32.3406 133.823 32.4211 134.096 32.4211C134.37 32.4211 134.595 32.3406 134.772 32.1637C134.949 31.9868 135.029 31.7617 135.029 31.4883C135.029 31.2632 134.949 31.0541 134.772 30.8772C134.595 30.7003 134.37 30.6199 134.129 30.6199C133.823 30.6199 133.598 30.7003 133.421 30.8772ZM129.963 39.4167H131.33V29.9766H129.963V39.4167ZM56.4854 30.4751C56.1155 30.9094 55.9386 31.4883 55.9386 32.2763V33.5468H54.9737V34.6564H55.9386V39.4488H57.3056V34.6564H58.7047V33.5468H57.3056V32.2441C57.3056 31.4883 57.595 31.1345 58.174 31.1345C58.3187 31.1345 58.4635 31.1667 58.576 31.2149C58.6886 31.2792 58.7851 31.3275 58.8333 31.424L59.0907 30.1213C58.7208 29.9444 58.3991 29.8962 58.1097 29.8962C57.4181 29.8319 56.8553 30.0409 56.4854 30.4751Z" fill="#FC5027"/>
<path d="M37.2836 44H10.7325C5.90789 44 2 40.0921 2 35.2675V8.73246C2 3.9079 5.90789 0 10.7325 0H37.2836C42.1082 0 46.0161 3.9079 46.0161 8.73246V35.2836C46.0161 40.1082 42.1082 44 37.2836 44Z" fill="#FC5027"/>
<path d="M40.3393 13.8304C40.5322 13.959 40.6287 14.1842 40.6287 14.4093C40.5805 15.4707 40.4518 16.5321 40.2428 17.5453C38.3129 27.1462 29.8217 34.383 19.658 34.383C15.2194 34.383 11.1024 33 7.70915 30.652C7.51617 30.5233 7.41968 30.2982 7.41968 30.073C7.95038 18.9444 17.1492 10.0994 28.4065 10.0994C28.7603 10.0994 29.1141 10.1154 29.4679 10.1315C33.4723 10.3245 37.2194 11.6593 40.3393 13.8304Z" fill="white"/>
<path d="M3.57611 20.2793C3.89775 23.2223 4.71792 25.6024 5.47377 27.2427C5.55418 27.4196 5.82757 27.3875 5.85974 27.1784C6.93722 20.0541 13.0644 11.6111 21.2179 9.39185C14.2706 10.1638 6.72816 16.1141 5.47377 22C5.26471 22.8684 3.91383 19.4109 3.57611 20.2793Z" fill="white"/>
<path d="M44.4401 24.203C44.1185 21.26 43.2983 18.8799 42.5424 17.2396C42.462 17.0627 42.1886 17.0948 42.1565 17.3039C41.079 24.4282 34.9518 32.8712 26.7983 35.0905C33.7456 34.3185 41.288 28.3682 42.5424 22.4823C42.7515 21.6138 44.1024 25.0715 44.4401 24.203Z" fill="white"/>
<path d="M28.5994 19.9578C27.345 17.4329 24.2573 16.3876 21.7325 17.642C19.1915 18.8964 18.1784 21.9841 19.4328 24.5089C20.7032 27.0499 23.7749 28.0791 26.2997 26.8247C28.8407 25.5703 29.8538 22.4826 28.5994 19.9578ZM24.0161 25.9241C21.9737 25.9241 20.3333 24.2677 20.3333 22.2414C20.3333 20.199 21.9898 18.5587 24.0161 18.5587C26.0585 18.5587 27.6988 20.2151 27.6988 22.2414C27.6988 24.2838 26.0585 25.9241 24.0161 25.9241Z" fill="#FC5027"/>
<path d="M26.943 28.1112C23.7105 29.7194 19.7705 28.3846 18.1623 25.1522C16.5541 21.9197 17.8728 17.9636 21.1053 16.3715C24.3377 14.7633 28.2778 16.0981 29.886 19.3305C31.462 22.5791 30.1594 26.5031 26.943 28.1112ZM20.462 15.0688C16.5219 17.0308 14.8816 21.8393 16.8436 25.7794C18.8056 29.7355 23.598 31.3437 27.5702 29.3817C31.5102 27.4197 33.1184 22.6273 31.1564 18.6712C29.2105 14.7472 24.4021 13.1229 20.462 15.0688Z" fill="#FC5027"/>
<path d="M24.0161 24.5248C25.2685 24.5248 26.2837 23.5096 26.2837 22.2573C26.2837 21.005 25.2685 19.9897 24.0161 19.9897C22.7638 19.9897 21.7486 21.005 21.7486 22.2573C21.7486 23.5096 22.7638 24.5248 24.0161 24.5248Z" fill="#FC5027"/>
</svg>
