<svg width="17" height="17" viewBox="0 0 17 17" fill="none" xmlns="http://www.w3.org/2000/svg">
<path d="M8.50002 0.530273C10.6736 0.530273 10.9448 0.538273 11.7976 0.578274C12.6496 0.618274 13.2296 0.751874 13.74 0.950275C14.268 1.15348 14.7128 1.42868 15.1576 1.87268C15.5644 2.27259 15.8792 2.75635 16.08 3.29028C16.2776 3.79988 16.412 4.38068 16.452 5.23269C16.4896 6.08549 16.5 6.35669 16.5 8.53029C16.5 10.7039 16.492 10.9751 16.452 11.8279C16.412 12.6799 16.2776 13.2599 16.08 13.7703C15.8798 14.3045 15.5649 14.7884 15.1576 15.1879C14.7576 15.5946 14.2739 15.9093 13.74 16.1103C13.2304 16.3079 12.6496 16.4423 11.7976 16.4823C10.9448 16.5199 10.6736 16.5303 8.50002 16.5303C6.32641 16.5303 6.05521 16.5223 5.20241 16.4823C4.35041 16.4423 3.77041 16.3079 3.26001 16.1103C2.72587 15.9099 2.24203 15.5951 1.8424 15.1879C1.43553 14.7881 1.12075 14.3043 0.920001 13.7703C0.721601 13.2607 0.588 12.6799 0.548 11.8279C0.5104 10.9751 0.5 10.7039 0.5 8.53029C0.5 6.35669 0.508 6.08549 0.548 5.23269C0.588 4.37988 0.721601 3.80068 0.920001 3.29028C1.12019 2.75602 1.43505 2.27213 1.8424 1.87268C2.24214 1.46566 2.72595 1.15086 3.26001 0.950275C3.77041 0.751874 4.34961 0.618274 5.20241 0.578274C6.05521 0.540673 6.32641 0.530273 8.50002 0.530273ZM8.50002 4.53028C7.43915 4.53028 6.42173 4.95171 5.67159 5.70186C4.92144 6.45201 4.50001 7.46942 4.50001 8.53029C4.50001 9.59116 4.92144 10.6086 5.67159 11.3587C6.42173 12.1089 7.43915 12.5303 8.50002 12.5303C9.56089 12.5303 10.5783 12.1089 11.3285 11.3587C12.0786 10.6086 12.5 9.59116 12.5 8.53029C12.5 7.46942 12.0786 6.45201 11.3285 5.70186C10.5783 4.95171 9.56089 4.53028 8.50002 4.53028ZM13.7 4.33028C13.7 4.06507 13.5947 3.81071 13.4071 3.62317C13.2196 3.43564 12.9652 3.33028 12.7 3.33028C12.4348 3.33028 12.1805 3.43564 11.9929 3.62317C11.8054 3.81071 11.7 4.06507 11.7 4.33028C11.7 4.5955 11.8054 4.84985 11.9929 5.03739C12.1805 5.22493 12.4348 5.33029 12.7 5.33029C12.9652 5.33029 13.2196 5.22493 13.4071 5.03739C13.5947 4.84985 13.7 4.5955 13.7 4.33028ZM8.50002 6.13029C9.13654 6.13029 9.74699 6.38314 10.1971 6.83323C10.6472 7.28332 10.9 7.89377 10.9 8.53029C10.9 9.16681 10.6472 9.77727 10.1971 10.2274C9.74699 10.6774 9.13654 10.9303 8.50002 10.9303C7.8635 10.9303 7.25305 10.6774 6.80296 10.2274C6.35287 9.77727 6.10001 9.16681 6.10001 8.53029C6.10001 7.89377 6.35287 7.28332 6.80296 6.83323C7.25305 6.38314 7.8635 6.13029 8.50002 6.13029Z" fill="#202A3F"/>
</svg>
