<svg width="17" height="17" viewBox="0 0 17 17" fill="none" xmlns="http://www.w3.org/2000/svg">
<g clip-path="url(#clip0_4422_413)">
<path d="M14.8553 5.10233C14.8655 5.24446 14.8655 5.38661 14.8655 5.52874C14.8655 9.86374 11.566 14.8587 5.53553 14.8587C3.67766 14.8587 1.95178 14.3206 0.5 13.3866C0.763969 13.417 1.01775 13.4272 1.29187 13.4272C2.82484 13.4272 4.23603 12.9095 5.36294 12.0262C3.92131 11.9957 2.71319 11.0516 2.29694 9.75208C2.5 9.78252 2.70303 9.80283 2.91625 9.80283C3.21066 9.80283 3.50509 9.7622 3.77919 9.69117C2.27666 9.38658 1.14972 8.0668 1.14972 6.47289V6.4323C1.58625 6.67596 2.09391 6.82824 2.63194 6.84852C1.74869 6.25967 1.17003 5.25461 1.17003 4.11755C1.17003 3.50843 1.33244 2.95005 1.61672 2.46274C3.23094 4.45258 5.65734 5.75205 8.37812 5.89421C8.32737 5.65055 8.29691 5.39677 8.29691 5.14296C8.29691 3.33583 9.75884 1.86377 11.5761 1.86377C12.5202 1.86377 13.373 2.25971 13.972 2.8993C14.7131 2.75718 15.4238 2.48305 16.0532 2.10743C15.8096 2.86886 15.2918 3.50846 14.6116 3.91452C15.2715 3.84349 15.9111 3.66071 16.4999 3.40693C16.0533 4.05664 15.4949 4.6353 14.8553 5.10233Z" fill="#202A3F"/>
</g>
<defs>
<clipPath id="clip0_4422_413">
<rect width="16" height="16" fill="white" transform="translate(0.5 0.530273)"/>
</clipPath>
</defs>
</svg>
