<svg width="17" height="17" viewBox="0 0 17 17" fill="none" xmlns="http://www.w3.org/2000/svg">
<g clip-path="url(#clip0_4422_419)">
<path d="M16.1657 4.40787C15.9817 3.6688 15.4395 3.08674 14.7511 2.88921C13.5033 2.53027 8.5 2.53027 8.5 2.53027C8.5 2.53027 3.49669 2.53027 2.2489 2.88921C1.56052 3.08677 1.01835 3.6688 0.834336 4.40787C0.5 5.74746 0.5 8.5424 0.5 8.5424C0.5 8.5424 0.5 11.3373 0.834336 12.6769C1.01835 13.416 1.56052 13.9738 2.2489 14.1713C3.49669 14.5303 8.5 14.5303 8.5 14.5303C8.5 14.5303 13.5033 14.5303 14.7511 14.1713C15.4395 13.9738 15.9817 13.416 16.1657 12.6769C16.5 11.3373 16.5 8.5424 16.5 8.5424C16.5 8.5424 16.5 5.74746 16.1657 4.40787ZM6.86363 11.08V6.0048L11.0454 8.54246L6.86363 11.08Z" fill="#202A3F"/>
</g>
<defs>
<clipPath id="clip0_4422_419">
<rect width="16" height="16" fill="white" transform="translate(0.5 0.530273)"/>
</clipPath>
</defs>
</svg>
